<svg width="149" height="50" viewBox="0 0 149 50" fill="none" xmlns="http://www.w3.org/2000/svg">
<path d="M50 25C50 38.807 38.807 50 25 50C11.193 50 0 38.807 0 25C0 11.193 11.193 0 25 0C38.807 0 50 11.193 50 25Z" fill="#E73741"/>
<path fill-rule="evenodd" clip-rule="evenodd" d="M119.719 6.344V29.532C119.719 33.844 122.036 36 126.671 36H127.903C128.284 36 128.592 35.868 128.827 35.604C129.091 35.34 129.223 35.032 129.223 34.68C129.223 34.328 129.091 34.035 128.827 33.8C128.592 33.536 128.284 33.404 127.903 33.404H126.671C125.146 33.404 124.075 33.125 123.459 32.568C122.872 31.982 122.579 30.969 122.579 29.532V17.564H128.255C128.392 17.5676 128.528 17.5373 128.651 17.4759C128.774 17.4146 128.88 17.3239 128.959 17.212C129.164 16.977 129.267 16.699 129.267 16.376C129.267 16.053 129.164 15.775 128.959 15.54C128.783 15.305 128.548 15.188 128.255 15.188H122.579V6.344C122.579 6.051 122.432 5.801 122.139 5.596C121.846 5.391 121.508 5.288 121.127 5.288C120.78 5.28632 120.441 5.39409 120.159 5.596C119.866 5.801 119.719 6.051 119.719 6.344ZM12.772 16.244V34.856C12.772 35.149 12.904 35.413 13.168 35.648C13.461 35.883 13.799 36 14.18 36C14.591 36 14.928 35.883 15.192 35.648C15.485 35.413 15.632 35.149 15.632 34.856V23.988C15.632 22.081 16.219 20.541 17.392 19.368C18.565 18.165 19.915 17.564 21.44 17.564H22.98C23.273 17.564 23.537 17.432 23.772 17.168C24.007 16.904 24.124 16.596 24.124 16.244C24.124 15.892 24.007 15.584 23.772 15.32C23.537 15.056 23.273 14.924 22.98 14.924H21.44C20.091 14.924 18.903 15.261 17.876 15.936C16.849 16.61 16.072 17.432 15.544 18.4V16.244C15.544 15.951 15.412 15.701 15.148 15.496C14.884 15.291 14.561 15.188 14.18 15.188C13.769 15.188 13.432 15.291 13.168 15.496C12.904 15.701 12.772 15.951 12.772 16.244ZM25.773 23.02V27.948C25.773 30.441 26.653 32.465 28.413 34.02C30.173 35.545 32.446 36.308 35.233 36.308C37.111 36.308 38.68 35.985 39.941 35.34C41.203 34.665 41.833 34.02 41.833 33.404C41.833 33.111 41.701 32.817 41.437 32.524C41.202 32.201 40.924 32.04 40.601 32.04C40.366 32.04 40.043 32.187 39.633 32.48C39.252 32.773 38.68 33.067 37.917 33.36C37.184 33.653 36.318 33.8 35.321 33.8C33.356 33.8 31.742 33.287 30.481 32.26C29.249 31.204 28.633 29.81 28.633 28.08V26.452H38.577C39.193 26.452 39.677 26.423 40.029 26.364C40.4278 26.2894 40.8134 26.1559 41.173 25.968C41.613 25.762 41.921 25.411 42.097 24.912C42.302 24.413 42.405 23.753 42.405 22.932C42.405 20.644 41.584 18.737 39.941 17.212C38.327 15.687 36.407 14.924 34.177 14.924C31.86 14.924 29.88 15.731 28.237 17.344C26.594 18.928 25.773 20.82 25.773 23.02ZM28.633 24.34H37.433C38.313 24.34 38.9 24.252 39.193 24.076C39.486 23.871 39.633 23.46 39.633 22.844C39.633 21.377 39.105 20.087 38.049 18.972C37.022 17.857 35.717 17.3 34.133 17.3C32.608 17.3 31.303 17.828 30.217 18.884C29.161 19.94 28.633 21.201 28.633 22.668V24.34ZM46.541 24.516C46.336 24.75 46.233 25.059 46.233 25.44C46.233 26.262 46.6 26.672 47.333 26.672H58.773C58.9161 26.6729 59.0575 26.6418 59.1869 26.5809C59.3164 26.5199 59.4305 26.4308 59.521 26.32C59.756 26.085 59.873 25.792 59.873 25.44C59.873 25.059 59.756 24.751 59.521 24.516C59.316 24.252 59.067 24.12 58.773 24.12H47.333C47.1789 24.1176 47.0265 24.1523 46.8886 24.2213C46.7508 24.2902 46.6315 24.3913 46.541 24.516ZM64.893 34.856V16.244C64.893 15.951 65.025 15.701 65.289 15.496C65.553 15.291 65.89 15.188 66.301 15.188C66.682 15.188 67.005 15.291 67.269 15.496C67.533 15.701 67.665 15.951 67.665 16.244V18.268C68.193 17.3 68.955 16.508 69.953 15.892C70.98 15.247 72.168 14.924 73.517 14.924C74.925 14.924 76.187 15.334 77.301 16.156C78.416 16.948 79.237 18.004 79.765 19.324C80.498 17.887 81.466 16.801 82.669 16.068C83.872 15.305 85.133 14.924 86.453 14.924C88.448 14.924 90.178 15.672 91.645 17.168C93.112 18.664 93.845 20.658 93.845 23.152V34.856C93.845 35.149 93.698 35.413 93.405 35.648C93.141 35.883 92.804 36 92.393 36C92.012 36 91.674 35.883 91.381 35.648C91.117 35.413 90.985 35.149 90.985 34.856V23.152C90.985 21.422 90.472 20.057 89.445 19.06C88.448 18.063 87.289 17.564 85.969 17.564C84.619 17.564 83.417 18.077 82.361 19.104C81.334 20.101 80.821 21.392 80.821 22.976V34.9C80.821 35.633 80.337 36 79.369 36C78.43 36 77.961 35.633 77.961 34.9V23.02C77.961 21.465 77.462 20.175 76.465 19.148C75.497 18.092 74.324 17.564 72.945 17.564C71.566 17.564 70.349 18.077 69.293 19.104C68.266 20.101 67.753 21.451 67.753 23.152V34.856C67.753 35.149 67.606 35.413 67.313 35.648C67.0274 35.8804 66.6692 36.005 66.301 36C65.92 36 65.582 35.883 65.289 35.648C65.025 35.413 64.893 35.149 64.893 34.856ZM98.389 23.152V27.948C98.389 30.148 99.225 32.099 100.897 33.8C102.569 35.472 104.505 36.308 106.705 36.308C108.934 36.308 110.885 35.472 112.557 33.8C114.258 32.098 115.109 30.148 115.109 27.948V23.152C115.109 20.894 114.273 18.957 112.601 17.344C110.929 15.731 108.964 14.924 106.705 14.924C104.447 14.924 102.496 15.745 100.853 17.388C99.211 19.002 98.389 20.922 98.389 23.152ZM101.249 27.948C101.249 29.444 101.777 30.778 102.833 31.952C103.918 33.096 105.209 33.668 106.705 33.668C108.231 33.668 109.535 33.096 110.621 31.952C111.706 30.779 112.249 29.444 112.249 27.948V23.152C112.249 21.715 111.692 20.424 110.577 19.28C109.492 18.136 108.201 17.564 106.705 17.564C105.209 17.564 103.918 18.136 102.833 19.28C101.777 20.424 101.249 21.715 101.249 23.152V27.948ZM131.691 27.948V23.02C131.691 20.82 132.512 18.928 134.155 17.344C135.798 15.731 137.778 14.924 140.095 14.924C142.324 14.924 144.246 15.687 145.859 17.212C147.502 18.737 148.323 20.644 148.323 22.932C148.323 23.753 148.22 24.413 148.015 24.912C147.839 25.411 147.531 25.762 147.091 25.968C146.731 26.1559 146.346 26.2893 145.947 26.364C145.595 26.423 145.111 26.452 144.495 26.452H134.551V28.08C134.551 29.81 135.167 31.204 136.399 32.26C137.66 33.287 139.274 33.8 141.239 33.8C142.236 33.8 143.102 33.653 143.835 33.36C144.598 33.067 145.17 32.773 145.551 32.48C145.962 32.187 146.284 32.04 146.519 32.04C146.842 32.04 147.12 32.201 147.355 32.524C147.619 32.817 147.751 33.111 147.751 33.404C147.751 34.02 147.12 34.665 145.859 35.34C144.598 35.985 143.028 36.308 141.151 36.308C138.364 36.308 136.091 35.545 134.331 34.02C132.571 32.465 131.691 30.441 131.691 27.948ZM143.351 24.34H134.551V22.668C134.551 21.201 135.079 19.94 136.135 18.884C137.22 17.828 138.526 17.3 140.051 17.3C141.635 17.3 142.94 17.857 143.967 18.972C145.023 20.087 145.551 21.377 145.551 22.844C145.551 23.46 145.404 23.871 145.111 24.076C144.818 24.252 144.231 24.34 143.351 24.34Z" fill="#1A1A1A"/>
</svg>
